PathFileType	4	(X/Y/Z)	15_1_24_p0_0-414.trc
DataRate	CameraRate	NumFrames	NumMarkers	Units	OrigDataRate	OrigDataStartFrame	OrigNumFrames
55.0	55.0	6	27	m	55.0	51	415
Frame#	Time	RHip			RKnee			RAnkle			RBigToe			RSmallToe			RHeel			LHip			LKnee			LAnkle			LBigToe			LSmallToe			LHeel			Neck			Head			Nose			RShoulder			RElbow			RWrist			RThumb			RIndex			RPinky			LShoulder			LElbow			LWrist			LThumb			LIndex			LPinky			
		X1	Y1	Z1	X2	Y2	Z2	X3	Y3	Z3	X4	Y4	Z4	X5	Y5	Z5	X6	Y6	Z6	X7	Y7	Z7	X8	Y8	Z8	X9	Y9	Z9	X10	Y10	Z10	X11	Y11	Z11	X12	Y12	Z12	X13	Y13	Z13	X14	Y14	Z14	X15	Y15	Z15	X16	Y16	Z16	X17	Y17	Z17	X18	Y18	Z18	X19	Y19	Z19	X20	Y20	Z20	X21	Y21	Z21	X22	Y22	Z22	X23	Y23	Z23	X24	Y24	Z24	X25	Y25	Z25	X26	Y26	Z26	X27	Y27	Z27	
51	0.9272727272727272	0.2488820873308947	0.3390894943260986	1.1013263488705984	0.26460795965983047	0.2690911067843069	1.528995000451641	0.28183913449531783	0.23069270494272093	1.92421686068015	0.24125789214604557	0.033950694307812945	1.9108965384090626	0.3155783854458264	0.050562465182941066	1.9011478209966706	0.2643895016617842	0.2854134460077524	1.9881863474039059	0.021449188145346472	0.35838748001763254	1.1218971162036186	0.03655395975832014	0.2706923210259666	1.524375435203141	0.06493124938881531	0.2441059141877374	1.890962843511808	0.06823093324376615	0.07343044440756934	1.912370422475404	0.02567379253952954	0.11072424920032965	1.9230099418497688	0.09572560155073712	0.28494246797110995	1.933661397895583	0.10629528088817618	0.4613867742729929	0.5533870153721201	0.10084163164953039	0.4573717363054739	0.29419620845695893	0.0804528888528147	0.3483034353956221	0.4082831259441522	0.24810674733046278	0.4064781987915696	0.616921312051893	0.3071312343247666	0.30916751633324446	0.8586084743381325	0.1896069404634894	0.16448709983336468	0.9913326814116771	0.09422956637533929	0.1649541225346266	1.0513721879244298	0.09596017090767883	0.15878652322069284	1.0726163397704205	0.10711579134182721	0.17672961697338752	1.09038998191256	-0.04658730827906419	0.41704696039694816	0.6217616180837264	-0.07819296970659481	0.34807128376329766	0.8625853185943826	0.04643677426698708	0.21280915373740206	1.0108021679944912	0.11197788474343874	0.16919490202763737	1.036011812627177	0.12101472502372043	0.16825898294874123	1.0800422736037822	0.11267950761492648	0.17752718228676312	1.091187480885093
52	0.9454545454545454	0.24797542994728589	0.3392751011307743	1.0970587251304917	0.26330072762064843	0.2692979526657391	1.5238781652709321	0.28179811068865374	0.2310669165692379	1.9243029544040908	0.241201150563935	0.033595799293372995	1.910692961045379	0.3155289703112493	0.05023954486079828	1.9009495135111276	0.26318133549126344	0.2856774478793733	1.9839123567189598	0.021724822305578807	0.35719180294655456	1.1252444710183875	0.03657878502799216	0.2706709130479226	1.5242706005045574	0.06274305868737728	0.24332437841288346	1.889418719579784	0.07274838846303928	0.061283530030213355	1.9114711332235268	0.02865531378833668	0.10031222249213091	1.916952923432976	0.09471444333159537	0.28347181083248213	1.939512620548996	0.10627873227960259	0.46136746147802576	0.5533538164958751	0.10082897392198192	0.4574534182253128	0.2942141978824856	0.08041990380090347	0.34839837204626906	0.4082380633850473	0.24810518179763935	0.4064886138849211	0.6169129546532036	0.31140698654368193	0.3191812511768237	0.8629148276005331	0.1896148989545755	0.16446480074486028	0.9912970614290977	0.09784334654411705	0.16559174770815435	1.051158790006658	0.09593747189163937	0.15862470549444382	1.0724708092389654	0.10711198350602612	0.17666414462722474	1.0903835864012046	-0.046145915175293	0.41688195991751775	0.6251421009348791	-0.07816739459893529	0.34799104018258004	0.862566482704694	0.04637926861672942	0.21290709298649976	1.0108209538406714	0.11197206694799008	0.16925965922020675	1.0359126032678267	0.12101315773724332	0.16825636267080493	1.0799921681897982	0.11265949171647685	0.1775298360913673	1.0911939883057595
53	0.9636363636363636	0.24886853476126514	0.3390771510050973	1.1014176730796623	0.2632875338747497	0.2692795456561067	1.524002256462214	0.28174006765347615	0.23081202576793272	1.9241294559822022	0.2410896647702158	0.03382981916313448	1.9110579962597922	0.3108978088186872	0.04149344549231207	1.8929887810961255	0.26202847649644806	0.28366331966919756	1.9888112259921347	0.021737945931472002	0.3571544667983082	1.1256083915653652	0.03658727467678381	0.27069472401243516	1.5243866946148656	0.06307228695346982	0.2416412836591941	1.9002555221788495	0.07210310790828771	0.058971064639582085	1.9159066438901433	0.026178698179573266	0.09901893771288475	1.9272639581176865	0.09341880651582823	0.28101107723498603	1.946545237304422	0.10627933390640272	0.4614186129119371	0.5533448184459812	0.10083838220765189	0.4574447408303748	0.29429345685755326	0.0801267787656077	0.34897407052578727	0.4052167305998828	0.2481231120104098	0.40649289688399604	0.6169418653193838	0.31137595775744337	0.319198610551014	0.8629846408772345	0.18958891518164125	0.1644706944769595	0.9913035059083921	0.09778466366725597	0.16556971608701065	1.0510802422760306	0.09588410368359651	0.1586202704128254	1.072424279789249	0.10705004673809144	0.17682628858225738	1.0904328666496301	-0.04614682649165768	0.416944164122581	0.6251712857424647	-0.07814355590134113	0.347934216506039	0.8625352299378611	0.04637787652618458	0.21285915100853375	1.0107960440137345	0.11191346014141113	0.16932764781377646	1.0358258497535846	0.12099764075669647	0.16835534610868713	1.080023299802426	0.11264414715707362	0.17755213546132345	1.0911996439623477
54	0.9818181818181818	0.24796317198114756	0.3391773183178387	1.0970381473039277	0.263259194456182	0.26931182507138574	1.523891414524644	0.2818486865522863	0.2309814589283905	1.9243884332322283	0.24206294314703203	0.0354441035181364	1.9064382476764201	0.31099487285308935	0.041743364394765864	1.893099351515332	0.2630610245030916	0.2854407849173444	1.9835854422659978	0.02175766755364061	0.3571529944056749	1.125398964469354	0.03663018868670867	0.27057286786495793	1.524274551139211	0.0639761143079381	0.24284971252636622	1.8955793172830309	0.07529010623714864	0.046270179875953506	1.908785199193633	0.026032089873144072	0.09907489570053939	1.9278601521570617	0.08881986058192175	0.29629881276417214	1.9555128609647252	0.10628372030571911	0.4614560149029777	0.553330912296411	0.10084086047423242	0.4574831017476632	0.2942393030297949	0.08357476712478108	0.3580549488170188	0.4075792445842854	0.25188071757349845	0.407536566390693	0.6170859997100913	0.3113845678886076	0.31924338181011747	0.8630138488192497	0.18960231900065846	0.16442551125036875	0.9912841249066239	0.09408601605162205	0.16492901932785323	1.0509076717201253	0.09593181229263675	0.15866641389519015	1.0724961756039149	0.10703596136295664	0.1766613558573243	1.0904123358327626	-0.04617668253793577	0.4167934454984133	0.6252358927395749	-0.07815975179381032	0.3479924615134522	0.8626113711979132	0.04641572357953549	0.21294834692896733	1.01085056616234	0.11204588409080771	0.16930476020202795	1.0361627470597052	0.12104768603855247	0.16837189576785255	1.0800753946171326	0.1126828362361509	0.17755643335961033	1.0912071030559487
55	1.0	0.24888032762917267	0.33913805309076533	1.1014791159131674	0.26374185890025714	0.26800272163687316	1.527566274016814	0.2849740426246591	0.2174455405618837	1.9121000623375952	0.24107313668901745	0.03352076079640157	1.9111112246434079	0.3108998643777973	0.041322866736741536	1.8929727130039495	0.26218380879465214	0.2836914989475234	1.9891097420406572	0.02178895372965464	0.35728376210858553	1.125707181526241	0.036652387871153956	0.27061506051053663	1.5243308454241369	0.06309910190074136	0.24196495356721698	1.8998591409688412	0.07216998796606551	0.05918369895288085	1.9160259150186276	0.026137650329332886	0.10072269646158935	1.9228080281434348	0.0931251097037642	0.2829464524266604	1.94214253047605	0.10629005350786336	0.46145831798447245	0.5533051466778663	0.10100271934907772	0.45609423502927793	0.2971790175063942	0.08358795422932185	0.3581549653401381	0.40756529605311215	0.25188937219386426	0.4075146474175682	0.6170830577308791	0.31389146411744256	0.30682800406829813	0.8569333113173324	0.18960658673678582	0.16440322446747424	0.9913031090257918	0.09773996674208474	0.16549629481169872	1.0508342236403934	0.09586628620679084	0.15852218295975667	1.0723599035395297	0.10703546064518987	0.17678487743234558	1.0904338630121524	-0.04614594904899889	0.416896202925991	0.6252325437247915	-0.07816549875724356	0.3481278201934305	0.8626172234518918	0.0425227281558773	0.21136401875890462	1.0101910050946523	0.11192842457822229	0.16922128568809272	1.035847671094514	0.12101161608932448	0.16824569085584962	1.079977853354001	0.11264149737797796	0.17744512323480302	1.0911633416350979
56	1.018181818181818	0.24887776285638535	0.33902068004473107	1.1015762617927498	0.25955923630563393	0.2663572958902501	1.5268565686522464	0.2849399767935181	0.21753777098475804	1.9122836526606855	0.23620206596888585	0.02352771110780616	1.9027691939595777	0.3105311167608592	0.040533694062538934	1.8931216517733365	0.26226226211521947	0.28374656560290046	1.9896268205001395	0.021687493184908844	0.35728136375303854	1.1259206412746845	0.036627446889573194	0.27061700714171866	1.5243288631919327	0.06305096300320137	0.24138473469213095	1.9001791593617399	0.07534461206063786	0.046320319809250964	1.9088354501737852	0.02613072930653993	0.09867314133583276	1.9274770172761053	0.09335109840418082	0.28037862225471294	1.9472855413310128	0.10629459593309165	0.4614249386077779	0.5532919948742189	0.10087823914882109	0.4575082605562263	0.29419836170513197	0.08356127583999991	0.3581681148042855	0.4074005193732181	0.2518937675817796	0.40746592287474487	0.6170495512178777	0.31148141348956604	0.3192125324403622	0.8630337626617689	0.1895902284015062	0.16443922668327937	0.9913184817140019	0.09398947551013499	0.16525325033765206	1.0506310248734667	0.095835689638511	0.1586812558746253	1.0724557455565615	0.10694268943455772	0.17709961955580253	1.0905875717509004	-0.04616514589442279	0.41682755123923754	0.6252369672549385	-0.07816748898463141	0.34811850549141665	0.8626123104376534	0.042539689009870214	0.21134558310180004	1.010175723382612	0.11193908445701399	0.169431531344605	1.036087060173219	0.12100290548239198	0.1684838174701042	1.0801205098035525	0.11261647511131707	0.1776299231459268	1.0912389409591141
